
<svg id="Capa_1" enable-background="new 0 0 504.5 504.5" height="14" viewBox="0 0 504.5 504.5" width="512" xmlns="http://www.w3.org/2000/svg"><g><path d="m409.887 289.236c13.139-18.8 20.846-41.676 20.846-66.353 0-64.047-51.92-115.967-115.967-115.967-52.755 0-97.282 35.227-111.343 83.441v132.209h210.077z" fill="#ffd900"/><path d="m430.733 222.883c0-64.047-51.92-115.967-115.967-115.967-3.849 0-7.648.21-11.401.576 58.6 5.82 104.367 55.259 104.367 115.391 0 24.676-7.707 47.553-20.846 66.353l3.613 33.33h23l-3.613-33.33c13.14-18.8 20.847-41.677 20.847-66.353z" fill="#fb0"/><g><path d="m497 230.383h-33.133c-4.142 0-7.5-3.357-7.5-7.5s3.358-7.5 7.5-7.5h33.133c4.142 0 7.5 3.357 7.5 7.5 0 4.142-3.358 7.5-7.5 7.5z" fill="#ffd900"/></g><g><path d="m420.203 124.938c-1.919 0-3.839-.732-5.303-2.196-2.929-2.929-2.929-7.678 0-10.606l23.429-23.43c2.929-2.93 7.678-2.929 10.607-.001 2.929 2.929 2.929 7.678 0 10.606l-23.429 23.43c-1.465 1.464-3.384 2.197-5.304 2.197z" fill="#ffd900"/></g><g><path d="m314.767 81.25c-4.142 0-7.5-3.357-7.5-7.5v-33.133c0-4.143 3.358-7.5 7.5-7.5s7.5 3.357 7.5 7.5v33.133c0 4.143-3.358 7.5-7.5 7.5z" fill="#ffd900"/></g><g><path d="m209.321 124.914c-1.919 0-3.839-.732-5.303-2.196l-23.429-23.429c-2.929-2.93-2.929-7.678 0-10.607 2.929-2.928 7.678-2.928 10.606 0l23.429 23.429c2.929 2.93 2.929 7.678 0 10.607-1.464 1.464-3.384 2.196-5.303 2.196z" fill="#ffd900"/></g><g><path d="m257.699 92.605c-2.943 0-5.736-1.743-6.932-4.632l-6.34-15.306c-1.585-3.827.232-8.214 4.059-9.799 3.826-1.585 8.215.231 9.799 4.059l6.34 15.306c1.585 3.827-.232 8.214-4.059 9.799-.939.388-1.911.573-2.867.573z" fill="#ffa400"/></g><g><path d="m176.983 173.314c-.956 0-1.929-.184-2.867-.573l-15.306-6.34c-3.827-1.585-5.644-5.972-4.059-9.799 1.585-3.826 5.973-5.648 9.799-4.059l15.306 6.34c3.827 1.585 5.644 5.972 4.059 9.799-1.196 2.888-3.989 4.632-6.932 4.632z" fill="#ffa400"/></g><g><path d="m467.85 293.795c-.957 0-1.929-.184-2.867-.573l-15.306-6.34c-3.827-1.585-5.644-5.972-4.059-9.799 1.585-3.826 5.974-5.647 9.799-4.059l15.306 6.34c3.827 1.585 5.644 5.972 4.059 9.799-1.196 2.888-3.989 4.632-6.932 4.632z" fill="#ffa400"/></g><g><path d="m452.55 173.314c-2.943 0-5.736-1.743-6.932-4.632-1.585-3.827.232-8.214 4.059-9.799l15.306-6.34c3.827-1.585 8.214.232 9.799 4.059s-.232 8.214-4.059 9.799l-15.306 6.34c-.938.389-1.911.573-2.867.573z" fill="#ffa400"/></g><g><path d="m371.834 92.605c-.957 0-1.929-.184-2.867-.573-3.827-1.585-5.644-5.972-4.059-9.799l6.34-15.306c1.585-3.826 5.973-5.647 9.799-4.059 3.827 1.585 5.644 5.972 4.059 9.799l-6.34 15.306c-1.196 2.887-3.989 4.632-6.932 4.632z" fill="#ffa400"/></g><g><path d="m404.739 289.149h-69.507c-2.9 0-5.362-2.08-5.897-4.93-10.155-54.171-57.967-95.069-115.225-94.463-63.743.675-114.71 53.37-114.71 117.118v9.409c0 3.314-2.686 6-6 6h-17.914c-41.106 0-75.179 32.879-75.484 73.984-.307 41.432 33.187 75.116 74.548 75.116h331.333c50.552 0 91.49-41.168 91.114-91.807-.372-50.241-42.016-90.427-92.258-90.427z" fill="#c8effe"/><g fill="#99e2fc"><g><path d="m404.739 289.149h-23c50.242 0 91.885 40.186 92.258 90.426.375 50.639-40.562 91.808-91.114 91.808h23c50.553 0 91.49-41.168 91.114-91.808-.372-50.24-42.016-90.426-92.258-90.426z"/><path d="m306.336 284.219c.534 2.851 2.996 4.931 5.897 4.931h23c-2.9 0-5.362-2.08-5.897-4.931-10.155-54.171-57.967-95.069-115.225-94.463-3.437.036-6.835.233-10.192.566 51.461 5.09 93.029 43.82 102.417 93.897z"/></g><path d="m149.1 322.283c4.143 0 7.5-3.357 7.5-7.5s-3.357-7.5-7.5-7.5h-49.7v8.999c0 3.314-2.686 6-6 6h-17.914c-.007 0-.013.001-.02.001z"/></g></g></g></svg>