<?xml version="1.0" encoding="iso-8859-1"?>
<!-- Generator: Adobe Illustrator 18.0.0, SVG Export Plug-In . SVG Version: 6.00 Build 0)  -->
<!DOCTYPE svg PUBLIC "-//W3C//DTD SVG 1.1//EN" "http://www.w3.org/Graphics/SVG/1.1/DTD/svg11.dtd">
<svg version="1.1" id="Capa_1" xmlns="http://www.w3.org/2000/svg" xmlns:xlink="http://www.w3.org/1999/xlink" x="0px" y="0px"
	 viewBox="0 0 492.814 492.814" style="enable-background:new 0 0 492.814 492.814;" xml:space="preserve">
<g>
	<path style="fill:currentcolor;" d="M479.814,453.155h-67.022v-19.59h37.605c4.169,0,8.085-1.999,10.529-5.376c2.445-3.376,3.122-7.721,1.821-11.682
		l-50.605-154.039c-1.752-5.331-6.727-8.937-12.339-8.942c-0.004,0-0.008,0-0.012,0c-5.607,0-10.583,3.596-12.343,8.92
		l-22.072,66.776l-32.128-97.693c-1.754-5.334-6.734-8.939-12.35-8.939c-5.615,0-10.595,3.605-12.35,8.939l-60.833,184.974
		c-1.303,3.961-0.626,8.306,1.818,11.684c2.445,3.377,6.361,5.377,10.531,5.377h47.833v19.59H17.992c-7.18,0-13,5.82-13,13
		c0,7.18,5.82,13,13,13l461.823,0c7.18,0,13-5.82,13-13C492.814,458.975,486.994,453.155,479.814,453.155z M399.754,308.062
		l32.689,99.502h-41.303l-12.107-36.816L399.754,308.062z M320.899,277.203l42.871,130.362h-85.744L320.899,277.203z
		 M386.792,433.565v19.59l-52.893,0v-19.59H386.792z"/>
	<path style="fill:currentcolor;" d="M153.494,233.042c36.331,0,65.889-29.558,65.889-65.89c0-36.331-29.558-65.889-65.889-65.889
		c-36.331,0-65.889,29.558-65.889,65.889C87.605,203.484,117.163,233.042,153.494,233.042z M153.494,127.264
		c21.995,0,39.889,17.894,39.889,39.889c0,21.995-17.894,39.89-39.889,39.89s-39.889-17.895-39.889-39.89
		C113.605,145.158,131.499,127.264,153.494,127.264z"/>
	<path style="fill:currentcolor;" d="M153.494,71.27c7.18,0,13-5.82,13-13v-31.61c0-7.18-5.82-13-13-13c-7.18,0-13,5.82-13,13v31.61
		C140.494,65.45,146.314,71.27,153.494,71.27z"/>
	<path style="fill:currentcolor;" d="M140.494,276.037v31.61c0,7.18,5.82,13,13,13c7.18,0,13-5.82,13-13v-31.61c0-7.18-5.82-13-13-13
		C146.314,263.037,140.494,268.857,140.494,276.037z"/>
	<path style="fill:currentcolor;" d="M249.377,167.153c0,7.18,5.82,13,13,13h31.609c7.18,0,13-5.82,13-13s-5.82-13-13-13h-31.609
		C255.197,154.153,249.377,159.973,249.377,167.153z"/>
	<path style="fill:currentcolor;" d="M44.61,180.153c7.18,0,13-5.82,13-13s-5.82-13-13-13H13c-7.18,0-13,5.82-13,13s5.82,13,13,13H44.61z"/>
	<path style="fill:currentcolor;" d="M239.677,234.954c-5.077-5.076-13.309-5.076-18.385,0.001c-5.077,5.077-5.076,13.308,0.001,18.385l22.353,22.351
		c2.538,2.538,5.865,3.807,9.192,3.807c3.327,0,6.654-1.27,9.193-3.808c5.076-5.077,5.075-13.308-0.002-18.385L239.677,234.954z"/>
	<path style="fill:currentcolor;" d="M67.304,99.366c2.538,2.538,5.865,3.807,9.192,3.807c3.327,0,6.654-1.27,9.193-3.808
		c5.077-5.077,5.076-13.308-0.001-18.385L63.335,58.63c-5.077-5.076-13.308-5.076-18.385,0.001
		c-5.077,5.077-5.076,13.308,0.001,18.385L67.304,99.366z"/>
	<path style="fill:currentcolor;" d="M67.308,234.964l-22.35,22.352c-5.077,5.077-5.076,13.308,0.001,18.385c2.538,2.538,5.865,3.807,9.192,3.807
		c3.327,0,6.654-1.27,9.193-3.808l22.35-22.352c5.077-5.077,5.076-13.308-0.001-18.385
		C80.617,229.887,72.385,229.887,67.308,234.964z"/>
	<path style="fill:currentcolor;" d="M230.474,103.168c3.327,0,6.655-1.269,9.193-3.808l22.351-22.353c5.076-5.077,5.075-13.308-0.002-18.385
		c-5.076-5.076-13.308-5.076-18.384,0.001l-22.35,22.353c-5.077,5.077-5.076,13.308,0.001,18.385
		C223.821,101.899,227.147,103.168,230.474,103.168z"/>
</g>
<g>
</g>
<g>
</g>
<g>
</g>
<g>
</g>
<g>
</g>
<g>
</g>
<g>
</g>
<g>
</g>
<g>
</g>
<g>
</g>
<g>
</g>
<g>
</g>
<g>
</g>
<g>
</g>
<g>
</g>
</svg>
