<?xml version="1.0" encoding="iso-8859-1"?>
<!-- Generator: Adobe Illustrator 18.0.0, SVG Export Plug-In . SVG Version: 6.00 Build 0)  -->
<!DOCTYPE svg PUBLIC "-//W3C//DTD SVG 1.1//EN" "http://www.w3.org/Graphics/SVG/1.1/DTD/svg11.dtd">
<svg version="1.1" id="Capa_1" xmlns="http://www.w3.org/2000/svg" xmlns:xlink="http://www.w3.org/1999/xlink" x="0px" y="0px"
	 viewBox="0 0 487.823 487.823" style="enable-background:new 0 0 487.823 487.823;" xml:space="preserve">
<g>
	<path style="fill:currentcolor;" d="M474.823,436.159h-67.022v-19.59h37.605c4.169,0,8.085-2,10.529-5.376c2.445-3.376,3.122-7.721,1.821-11.682
		l-50.605-154.039c-1.752-5.331-6.727-8.937-12.339-8.942c-0.004,0-0.008,0-0.012,0c-5.607,0-10.583,3.596-12.343,8.92
		l-22.073,66.776l-32.127-97.693c-1.754-5.334-6.734-8.939-12.35-8.939s-10.595,3.605-12.35,8.939l-60.833,184.974
		c-1.303,3.961-0.626,8.306,1.818,11.684c2.445,3.377,6.361,5.377,10.531,5.377h47.833v19.59H13c-7.18,0-13,5.82-13,13
		c0,7.18,5.82,13,13,13l461.823,0c7.18,0,13-5.82,13-13C487.823,441.979,482.003,436.159,474.823,436.159z M394.763,291.066
		l32.689,99.502h-41.304l-12.106-36.816L394.763,291.066z M315.908,260.207l42.871,130.362h-85.744L315.908,260.207z
		 M381.801,416.569v19.59l-52.893,0v-19.59H381.801z"/>
	<path style="fill:currentcolor;" d="M145.506,264.654c65.89,0,119.494-53.605,119.494-119.495c0-7.563-0.721-15.161-2.143-22.584
		c-1.152-6.021-6.354-10.418-12.483-10.552c-6.155-0.123-11.518,4.033-12.934,9.997c-6.128,25.84-28.976,43.887-55.561,43.887
		c-31.497,0-57.121-25.624-57.121-57.122c0-26.586,18.047-49.434,43.887-55.563c5.965-1.415,10.131-6.804,9.997-12.934
		c-0.135-6.129-4.532-11.331-10.554-12.484c-7.426-1.421-15.023-2.141-22.582-2.141c-65.89,0-119.494,53.605-119.494,119.495
		C26.012,211.049,79.616,264.654,145.506,264.654z M117.632,55.907c-11.902,14.461-18.874,32.949-18.874,52.879
		c0,45.833,37.288,83.122,83.121,83.122c19.93,0,38.418-6.972,52.879-18.875c-11.888,37.982-47.403,65.622-89.252,65.622
		c-51.553,0-93.494-41.941-93.494-93.495C52.012,103.31,79.65,67.794,117.632,55.907z"/>
	<path style="fill:currentcolor;" d="M410.938,149.444h22c7.18,0,13-5.82,13-13c0-7.18-5.82-13-13-13h-22c-7.18,0-13,5.82-13,13
		C397.938,143.624,403.758,149.444,410.938,149.444z"/>
	<path style="fill:currentcolor;" d="M330.93,89.441h22c7.18,0,13-5.82,13-13s-5.82-13-13-13h-22c-7.18,0-13,5.82-13,13S323.75,89.441,330.93,89.441z"/>
	<path style="fill:currentcolor;" d="M140.945,343.447c-7.18,0-13,5.82-13,13c0,7.18,5.82,13,13,13h22c7.18,0,13-5.82,13-13c0-7.18-5.82-13-13-13H140.945z"/>
	<path style="fill:currentcolor;" d="M60.938,283.444c-7.18,0-13,5.82-13,13c0,7.18,5.82,13,13,13h22c7.18,0,13-5.82,13-13c0-7.18-5.82-13-13-13H60.938z"/>
</g>
<g>
</g>
<g>
</g>
<g>
</g>
<g>
</g>
<g>
</g>
<g>
</g>
<g>
</g>
<g>
</g>
<g>
</g>
<g>
</g>
<g>
</g>
<g>
</g>
<g>
</g>
<g>
</g>
<g>
</g>
</svg>
