<svg id="regular" enable-background="new 0 0 24 24" height="512" viewBox="0 0 24 24" width="512" xmlns="http://www.w3.org/2000/svg"><path d="m.415 11.196 5.869 2.925c.227.112.495.104.712-.023l5.224-3.037-3.162 2.802c-.161.143-.253.347-.253.562v6.825c0 .72.919 1.023 1.35.451l2.537-3.373 6.274 3.573c.44.253 1.004-.001 1.106-.504l3.913-19.5c.117-.586-.466-1.064-1.008-.846l-22.5 8.775c-.604.236-.643 1.081-.062 1.37zm21.83-8.249-3.439 17.137-5.945-3.386c-.324-.185-.741-.103-.971.201l-1.585 2.107v-4.244l8.551-7.576c.677-.599-.101-1.664-.874-1.21l-11.39 6.622-3.992-1.989z"/></svg>